<svg width="77" height="77" viewBox="0 0 88 88" fill="none" xmlns="http://www.w3.org/2000/svg">
<path d="M78.4671 35.9332C78.4671 37.8188 77.9079 39.6619 76.8604 41.2297C75.8129 42.7974 74.324 44.0193 72.582 44.7409C70.84 45.4624 68.9232 45.6512 67.0739 45.2834C65.2246 44.9155 63.5259 44.0076 62.1926 42.6743C60.8594 41.3411 59.9514 39.6424 59.5836 37.7931C59.2157 35.9438 59.4045 34.027 60.1261 32.285C60.8476 30.543 62.0695 29.0541 63.6373 28.0066C65.205 26.959 67.0482 26.3999 68.9337 26.3999C70.1857 26.3999 71.4253 26.6465 72.582 27.1256C73.7386 27.6047 74.7896 28.3069 75.6748 29.1922C76.5601 30.0774 77.2623 31.1284 77.7414 32.285C78.2205 33.4416 78.4671 34.6813 78.4671 35.9332Z" fill="#0090DA"/>
<path d="M55.7334 70.4H82.1334C81.4172 63.416 79.9418 56.5309 77.7334 49.8667H60.1334C57.9298 56.5322 56.4545 63.4168 55.7334 70.4Z" fill="#0090DA"/>
<path d="M29.3333 35.9332C29.3333 37.8188 28.7742 39.6619 27.7266 41.2297C26.6791 42.7974 25.1902 44.0193 23.4482 44.7409C21.7062 45.4624 19.7894 45.6512 17.9401 45.2834C16.0908 44.9155 14.3921 44.0076 13.0589 42.6743C11.7256 41.3411 10.8176 39.6424 10.4498 37.7931C10.0819 35.9438 10.2707 34.027 10.9923 32.285C11.7138 30.543 12.9358 29.0541 14.5035 28.0066C16.0713 26.959 17.9144 26.3999 19.7999 26.3999C21.0519 26.3999 22.2916 26.6465 23.4482 27.1256C24.6048 27.6047 25.6558 28.3069 26.541 29.1922C27.4263 30.0774 28.1285 31.1284 28.6076 32.285C29.0867 33.4416 29.3333 34.6813 29.3333 35.9332Z" fill="#0090DA"/>
<path d="M6.59961 70.4H32.9996C32.2834 63.416 30.8081 56.5309 28.5996 49.8667H10.9996C8.79268 56.5313 7.31733 63.4163 6.59961 70.4Z" fill="#0090DA"/>
<path d="M55.7333 28.6C55.7333 30.9207 55.0451 33.1892 53.7558 35.1187C52.4666 37.0483 50.6341 38.5522 48.4901 39.4402C46.3461 40.3283 43.9869 40.5606 41.7109 40.1079C39.4348 39.6552 37.3442 38.5377 35.7032 36.8968C34.0623 35.2558 32.9448 33.1651 32.4921 30.8891C32.0393 28.613 32.2717 26.2539 33.1598 24.1099C34.0478 21.9659 35.5517 20.1334 37.4813 18.8441C39.4108 17.5548 41.6793 16.8667 43.9999 16.8667C47.1118 16.8667 50.0962 18.1029 52.2967 20.3033C54.4971 22.5037 55.7333 25.4882 55.7333 28.6Z" fill="#A4CE4E"/>
<path d="M27.7051 70.4001H59.9717C59.1007 61.9182 57.3031 53.5572 54.6111 45.4668H33.0731C30.3795 53.5572 28.5794 61.9181 27.7051 70.4001Z" fill="#A4CE4E"/>
</svg>
