<svg width="77" height="77" viewBox="0 0 88 88" fill="none" xmlns="http://www.w3.org/2000/svg">
<path d="M44.0002 14.2778L13.2002 36.4978V73.7218H74.8002V36.4978L44.0002 14.2778Z" fill="#A4CE4E"/>
<path d="M44 14.2778V73.7218H74.8V36.4978L44 14.2778Z" fill="#0090DA"/>
<path d="M43.9998 51.5752C48.8801 51.5752 52.8364 47.6189 52.8364 42.7385C52.8364 37.8582 48.8801 33.9019 43.9998 33.9019C39.1194 33.9019 35.1631 37.8582 35.1631 42.7385C35.1631 47.6189 39.1194 51.5752 43.9998 51.5752Z" fill="white"/>
<path d="M30.5947 73.7216H57.3981C56.7484 67.3282 55.4084 61.0239 53.4014 54.9189H34.5987C32.5895 61.0237 31.247 67.3279 30.5947 73.7216Z" fill="white"/>
</svg>
