<svg width="88" height="88" viewBox="0 0 88 88" fill="none" xmlns="http://www.w3.org/2000/svg">
<path d="M43.2662 27.1331C43.2662 29.7438 42.4921 32.2959 41.0416 34.4666C39.5912 36.6374 37.5296 38.3292 35.1176 39.3283C32.7057 40.3274 30.0516 40.5888 27.491 40.0795C24.9305 39.5701 22.5785 38.313 20.7324 36.4669C18.8864 34.6209 17.6292 32.2688 17.1199 29.7083C16.6105 27.1477 16.8719 24.4937 17.871 22.0817C18.8701 19.6697 20.562 17.6081 22.7327 16.1577C24.9034 14.7073 27.4555 13.9331 30.0662 13.9331C33.5671 13.9331 36.9245 15.3238 39.4 17.7993C41.8755 20.2748 43.2662 23.6322 43.2662 27.1331Z" fill="#0090DA"/>
<path d="M10.2666 73.3335H49.8666C48.9081 63.8584 46.9263 54.5151 43.9559 45.4668H16.1773V45.5108C13.212 54.5454 11.2304 63.8736 10.2666 73.3335Z" fill="#0090DA"/>
<path d="M41.0664 54.9998C41.0664 51.3739 42.1416 47.8293 44.1561 44.8144C46.1706 41.7995 49.0339 39.4497 52.3839 38.0621C55.7339 36.6744 59.4201 36.3114 62.9764 37.0188C66.5327 37.7262 69.7994 39.4723 72.3634 42.0362C74.9273 44.6002 76.6734 47.8669 77.3808 51.4232C78.0882 54.9795 77.7251 58.6657 76.3375 62.0157C74.9499 65.3657 72.6001 68.229 69.5852 70.2435C66.5703 72.2579 63.0257 73.3332 59.3997 73.3332H41.0664V54.9998Z" fill="#0061A0"/>
<path d="M64.8344 48.8472H57.4424V51.3405H64.8344V48.8472Z" fill="white"/>
<path d="M69.6521 50.0939L63.9541 44.1172V56.0632L69.6521 50.0939Z" fill="white"/>
<path d="M61.9965 58.916H54.6045V61.4094H61.9965V58.916Z" fill="white"/>
<path d="M49.7861 60.1627L55.4915 54.186V66.1394L49.7861 60.1627Z" fill="white"/>
</svg>
