<svg width="88" height="88" viewBox="0 0 88 88" fill="none" xmlns="http://www.w3.org/2000/svg">
<!--<rect width="88" height="88" fill="#F2F2F2"/>-->
<path d="M66.5413 69.9781H25.8039C24.7498 69.9782 23.7059 69.7707 22.732 69.3673C21.7581 68.9639 20.8731 68.3727 20.1277 67.6273C19.3823 66.8819 18.791 65.9969 18.3877 65.023C17.9843 64.0491 17.7768 63.0052 17.7769 61.9511V18.0244H58.5143V61.9511C58.5142 63.0052 58.7217 64.0491 59.1251 65.023C59.5285 65.9969 60.1197 66.8819 60.8651 67.6273C61.6105 68.3727 62.4955 68.9639 63.4694 69.3673C64.4433 69.7707 65.4872 69.9782 66.5413 69.9781Z" fill="#0090DA"/>
<path d="M33.83 61.9513V58.9102H74.5674V61.9513C74.5675 63.0054 74.36 64.0492 73.9567 65.0231C73.5534 65.9969 72.9622 66.8819 72.2168 67.6272C71.4715 68.3726 70.5867 68.9639 69.6128 69.3673C68.639 69.7707 67.5952 69.9784 66.5411 69.9784H25.8037C26.8578 69.9784 27.9016 69.7707 28.8754 69.3673C29.8493 68.9639 30.7341 68.3726 31.4794 67.6272C32.2248 66.8819 32.816 65.9969 33.2193 65.0231C33.6226 64.0492 33.8301 63.0054 33.83 61.9513Z" fill="#0061A0"/>
<path d="M39.649 32.4976H36.6167V41.486H39.649V32.4976Z" fill="white"/>
<path d="M38.1332 49.8667L48.0368 40.4141H28.2295L38.1332 49.8667Z" fill="white"/>
</svg>
