<svg width="88" height="88" viewBox="0 0 88 88" fill="none" xmlns="http://www.w3.org/2000/svg">
<path d="M68.2958 25.9819H9.07178V65.9339H68.2958V25.9819Z" fill="#0090DA"/>
<path d="M70.0922 22.0659H7.2749V25.9892H70.0922V22.0659Z" fill="#0061A0"/>
<path d="M69.3004 47.0578C73.4598 47.0578 76.8317 43.6859 76.8317 39.5264C76.8317 35.367 73.4598 31.9951 69.3004 31.9951C65.1409 31.9951 61.769 35.367 61.769 39.5264C61.769 43.6859 65.1409 47.0578 69.3004 47.0578Z" fill="#0061A0"/>
<path d="M57.8823 65.934H80.7257C80.1684 60.4858 79.0251 55.1136 77.3157 49.9106H61.285C59.5763 55.1134 58.4355 60.4858 57.8823 65.934Z" fill="#0061A0"/>
<path d="M49.1632 47.0578C53.3226 47.0578 56.6945 43.6859 56.6945 39.5264C56.6945 35.367 53.3226 31.9951 49.1632 31.9951C45.0037 31.9951 41.6318 35.367 41.6318 39.5264C41.6318 43.6859 45.0037 47.0578 49.1632 47.0578Z" fill="white"/>
<path d="M37.7451 65.934H60.5884C60.0419 60.4861 58.9059 55.1135 57.2004 49.9106H41.1478C39.4391 55.1134 38.2983 60.4858 37.7451 65.934Z" fill="white"/>
<path d="M29.7001 30.6167H14.0435V32.5747H29.7001V30.6167Z" fill="white"/>
<path d="M29.7001 34.5327H14.0435V36.4907H29.7001V34.5327Z" fill="white"/>
<path d="M29.7001 38.4487H14.0435V40.4067H29.7001V38.4487Z" fill="white"/>
<path d="M21.8681 42.3574H14.0435V44.3154H21.8681V42.3574Z" fill="white"/>
</svg>
