<svg width="88" height="88" viewBox="0 0 88 88" fill="none" xmlns="http://www.w3.org/2000/svg">
<path d="M44.2204 68.457C39.3689 68.457 34.6262 67.0183 30.5923 64.3229C26.5584 61.6275 23.4143 57.7965 21.5577 53.3142C19.7011 48.8319 19.2153 43.8998 20.1618 39.1414C21.1083 34.3831 23.4445 30.0122 26.8751 26.5817C30.3057 23.1511 34.6765 20.8148 39.4349 19.8683C44.1932 18.9218 49.1254 19.4076 53.6077 21.2642C58.0899 23.1208 61.921 26.2649 64.6164 30.2988C67.3118 34.3328 68.7505 39.0754 68.7505 43.927C68.7427 50.4304 66.1558 56.6651 61.5572 61.2637C56.9586 65.8623 50.7238 68.4492 44.2204 68.457ZM44.2204 23.2177C40.1245 23.2177 36.1206 24.4322 32.715 26.7078C29.3093 28.9834 26.655 32.2177 25.0875 36.0019C23.5201 39.786 23.11 43.95 23.909 47.9672C24.7081 51.9844 26.6805 55.6744 29.5767 58.5707C32.473 61.4669 36.163 63.4393 40.1803 64.2384C44.1975 65.0375 48.3614 64.6273 52.1456 63.0599C55.9297 61.4925 59.1641 58.8381 61.4396 55.4325C63.7152 52.0268 64.9298 48.0229 64.9298 43.927C64.924 38.4363 62.7402 33.1722 58.8577 29.2897C54.9752 25.4072 49.7111 23.2235 44.2204 23.2177Z" fill="#0090DA"/>
<path d="M57.024 22.4476C57.024 24.9799 56.2731 27.4555 54.8662 29.5611C53.4592 31.6667 51.4595 33.3078 49.1199 34.2769C46.7803 35.246 44.2058 35.4996 41.7221 35.0055C39.2383 34.5115 36.9569 33.292 35.1662 31.5014C33.3756 29.7107 32.1561 27.4292 31.662 24.9455C31.168 22.4618 31.4216 19.8873 32.3907 17.5477C33.3598 15.2081 35.0009 13.2083 37.1065 11.8014C39.2121 10.3945 41.6876 9.64355 44.22 9.64355C45.9015 9.64355 47.5664 9.97474 49.1199 10.6182C50.6733 11.2617 52.0849 12.2048 53.2738 13.3938C54.4628 14.5827 55.4059 15.9942 56.0494 17.5477C56.6928 19.1011 57.024 20.7661 57.024 22.4476Z" fill="#A4CE4E"/>
<path d="M44.2202 31.0938C48.9953 31.0938 52.8662 27.2228 52.8662 22.4478C52.8662 17.6727 48.9953 13.8018 44.2202 13.8018C39.4452 13.8018 35.5742 17.6727 35.5742 22.4478C35.5742 27.2228 39.4452 31.0938 44.2202 31.0938Z" fill="white"/>
<path d="M44.242 22.9757C46.34 22.9757 48.0407 21.275 48.0407 19.1771C48.0407 17.0791 46.34 15.3784 44.242 15.3784C42.1441 15.3784 40.4434 17.0791 40.4434 19.1771C40.4434 21.275 42.1441 22.9757 44.242 22.9757Z" fill="#0090DA"/>
<path d="M38.4858 32.4944H50.0065C49.7268 29.7515 49.1515 27.0469 48.2905 24.4277H40.2238C39.3555 27.0461 38.7728 29.7507 38.4858 32.4944Z" fill="#0090DA"/>
<path d="M79.2003 43.927C79.2003 46.4594 78.4493 48.935 77.0424 51.0406C75.6355 53.1462 73.6358 54.7873 71.2962 55.7564C68.9565 56.7255 66.3821 56.9791 63.8984 56.485C61.4146 55.991 59.1332 54.7715 57.3425 52.9808C55.5518 51.1902 54.3324 48.9087 53.8383 46.425C53.3443 43.9412 53.5978 41.3668 54.5669 39.0272C55.536 36.6875 57.1772 34.6878 59.2828 33.2809C61.3884 31.874 63.8639 31.123 66.3963 31.123C69.7921 31.123 73.0489 32.472 75.4501 34.8733C77.8513 37.2745 79.2003 40.5312 79.2003 43.927Z" fill="#A4CE4E"/>
<path d="M66.3965 52.5728C71.1715 52.5728 75.0425 48.7018 75.0425 43.9268C75.0425 39.1517 71.1715 35.2808 66.3965 35.2808C61.6214 35.2808 57.7505 39.1517 57.7505 43.9268C57.7505 48.7018 61.6214 52.5728 66.3965 52.5728Z" fill="white"/>
<path d="M66.4183 44.4548C68.5163 44.4548 70.217 42.754 70.217 40.6561C70.217 38.5581 68.5163 36.8574 66.4183 36.8574C64.3204 36.8574 62.6196 38.5581 62.6196 40.6561C62.6196 42.754 64.3204 44.4548 66.4183 44.4548Z" fill="#0090DA"/>
<path d="M60.6616 53.9734H72.1823C71.9026 51.2305 71.3273 48.5259 70.4663 45.9067H62.3996C61.5313 48.5251 60.9485 51.2297 60.6616 53.9734Z" fill="#0090DA"/>
<path d="M34.4083 43.927C34.4083 46.4594 33.6574 48.935 32.2504 51.0406C30.8435 53.1462 28.8438 54.7873 26.5042 55.7564C24.1645 56.7255 21.5901 56.9791 19.1064 56.485C16.6226 55.991 14.3412 54.7715 12.5505 52.9808C10.7598 51.1902 9.54037 48.9087 9.04632 46.425C8.55228 43.9412 8.80584 41.3668 9.77494 39.0272C10.744 36.6875 12.3852 34.6878 14.4908 33.2809C16.5964 31.874 19.0719 31.123 21.6043 31.123C25.0001 31.123 28.2569 32.472 30.6581 34.8733C33.0593 37.2745 34.4083 40.5312 34.4083 43.927Z" fill="#A4CE4E"/>
<path d="M21.6045 52.5728C26.3795 52.5728 30.2505 48.7018 30.2505 43.9268C30.2505 39.1517 26.3795 35.2808 21.6045 35.2808C16.8294 35.2808 12.9585 39.1517 12.9585 43.9268C12.9585 48.7018 16.8294 52.5728 21.6045 52.5728Z" fill="white"/>
<path d="M21.6263 44.4548C23.7242 44.4548 25.425 42.754 25.425 40.6561C25.425 38.5581 23.7242 36.8574 21.6263 36.8574C19.5284 36.8574 17.8276 38.5581 17.8276 40.6561C17.8276 42.754 19.5284 44.4548 21.6263 44.4548Z" fill="#0090DA"/>
<path d="M15.8623 53.9734H27.383C27.1033 51.2305 26.528 48.5259 25.667 45.9067H17.6003C16.7319 48.5251 16.1492 51.2297 15.8623 53.9734Z" fill="#0090DA"/>
<path d="M57.024 65.553C57.024 68.0854 56.2731 70.5609 54.8662 72.6665C53.4592 74.7722 51.4595 76.4133 49.1199 77.3824C46.7803 78.3515 44.2058 78.605 41.7221 78.111C39.2383 77.617 36.9569 76.3975 35.1662 74.6068C33.3756 72.8162 32.1561 70.5347 31.662 68.051C31.168 65.5672 31.4216 62.9928 32.3907 60.6531C33.3598 58.3135 35.0009 56.3138 37.1065 54.9069C39.2121 53.5 41.6876 52.749 44.22 52.749C45.9015 52.749 47.5664 53.0802 49.1199 53.7237C50.6733 54.3671 52.0849 55.3103 53.2738 56.4992C54.4628 57.6882 55.4059 59.0997 56.0494 60.6531C56.6928 62.2066 57.024 63.8716 57.024 65.553Z" fill="#A4CE4E"/>
<path d="M44.2202 74.1987C48.9953 74.1987 52.8662 70.3278 52.8662 65.5527C52.8662 60.7777 48.9953 56.9067 44.2202 56.9067C39.4452 56.9067 35.5742 60.7777 35.5742 65.5527C35.5742 70.3278 39.4452 74.1987 44.2202 74.1987Z" fill="white"/>
<path d="M44.242 66.0807C46.34 66.0807 48.0407 64.38 48.0407 62.2821C48.0407 60.1841 46.34 58.4834 44.242 58.4834C42.1441 58.4834 40.4434 60.1841 40.4434 62.2821C40.4434 64.38 42.1441 66.0807 44.242 66.0807Z" fill="#0090DA"/>
<path d="M38.4858 75.5994H50.0065C49.7268 72.8565 49.1515 70.1519 48.2905 67.5327H40.2238C39.3555 70.1511 38.7728 72.8557 38.4858 75.5994Z" fill="#0090DA"/>
</svg>
