<svg width="88" height="88" viewBox="0 0 88 88" fill="none" xmlns="http://www.w3.org/2000/svg">
<path d="M44.0001 11.7334H11.7334V44.0001H44.0001V11.7334Z" fill="#A4CE4E"/>
<path d="M76.2667 11.7334H44V44.0001H76.2667V11.7334Z" fill="#0090DA"/>
<path d="M44.0001 44H11.7334V76.2667H44.0001V44Z" fill="#0090DA"/>
<path d="M76.2667 44H44V76.2667H76.2667V44Z" fill="#A4CE4E"/>
<path d="M38.4707 17.2554H17.2554V38.4707H38.4707V17.2554Z" fill="white"/>
<path d="M70.7153 66.9238H49.5439V70.6711H70.7153V66.9238Z" fill="white"/>
<path d="M70.7153 49.522H49.5439V53.2693H70.7153V49.522Z" fill="white"/>
<path d="M70.7153 58.2266H49.5439V61.9739H70.7153V58.2266Z" fill="white"/>
<path d="M27.8667 49.522L17.2627 70.7446H38.478L27.8667 49.522Z" fill="white"/>
<path d="M60.1333 38.4413C65.9735 38.4413 70.7079 33.7069 70.7079 27.8667C70.7079 22.0264 65.9735 17.292 60.1333 17.292C54.293 17.292 49.5586 22.0264 49.5586 27.8667C49.5586 33.7069 54.293 38.4413 60.1333 38.4413Z" fill="white"/>
</svg>
